<svg id="Layer_35" enable-background="new 0 0 62 62" height="512" viewBox="0 0 62 62" width="512" xmlns="http://www.w3.org/2000/svg"><g><g><g><path d="m51 53.96c0 .84-.34 1.6-.89 2.15s-1.31.89-2.15.89h-.11c-.55 0-1.1-.15-1.58-.45l-13.06-7.98-2.2-1.34-.01-.01 1.21-.74c.49-.3.79-.83.79-1.4v-.43c0-.32-.09-.61-.25-.86h.01l16.45 7.4c1.09.49 1.79 1.58 1.79 2.77z" fill="#d3a06c"/></g><g><path d="m38.53 57.4c.3.39.47.87.47 1.37 0 .61-.25 1.17-.65 1.58-.41.4-.97.65-1.58.65h-.39c-.85 0-1.62-.48-2-1.23l-3.38-6.77 1.61-3.22z" fill="#d3a06c"/></g><g><path d="m33.21 48.57-.6 1.21-1.61 3.22-2.38 4.77c-.38.75-1.15 1.23-2 1.23h-.39c-.61 0-1.17-.25-1.58-.65-.4-.41-.65-.97-.65-1.58 0-.5.17-.98.47-1.37l6.2-7.98.33-.2.01.01z" fill="#cf9e76"/></g><g><path d="m33 44.65v.43c0 .57-.3 1.1-.79 1.4l-1.21.74-.33.2-14.94 9.13c-.48.3-1.03.45-1.58.45h-.11c-1.68 0-3.04-1.36-3.04-3.04 0-1.19.7-2.28 1.79-2.77l16.45-7.4 1.44-.64c.21-.1.44-.15.67-.15.59 0 1.11.31 1.4.79.16.25.25.54.25.86z" fill="#d3a06c"/></g><g><path d="m61 23v4h-2-4-24-24-4-2v-4h9 14 14 14z" fill="#b27946"/></g><g><path d="m55 27h4v34h-4z" fill="#d3a06c"/></g><g><path d="m52 17c1.66 0 3 1.34 3 3 0 .83-.34 1.58-.88 2.12s-1.29.88-2.12.88h-14c-1.66 0-3-1.34-3-3 0-.83.34-1.58.88-2.12s1.29-.88 2.12-.88h3 4z" fill="#ccd1d9"/></g><g><path d="m38 37c0 3-3 5-3 5l-2.24 1.79h-.01c-.29-.48-.81-.79-1.4-.79-.23 0-.46.05-.67.15l-1.44.64-2.24-1.79s-3-2-3-5 4-3 4-5c0-3 3-5 3-5s3 2 3 5c0 2 4 2 4 5z" fill="#ff826e"/></g><g><path d="m24 17c1.66 0 3 1.34 3 3 0 .83-.34 1.58-.88 2.12s-1.29.88-2.12.88h-14c-1.66 0-3-1.34-3-3 0-.83.34-1.58.88-2.12s1.29-.88 2.12-.88h1 4z" fill="#ccd1d9"/></g><g><path d="m3 27h4v34h-4z" fill="#d3a06c"/></g></g><g><path d="m62 22h-6.556c.344-.591.556-1.268.556-2 0-2.206-1.794-4-4-4h-14c-2.206 0-4 1.794-4 4 0 .732.212 1.409.556 2h-7.113c.345-.591.557-1.268.557-2 0-2.206-1.794-4-4-4h-14c-2.206 0-4 1.794-4 4 0 .732.212 1.409.556 2h-6.556v6h2v34h6v-34h20.519c-.788.996-1.519 2.357-1.519 4 0 .316-.461.621-1.22 1.085-1.174.719-2.78 1.703-2.78 3.915 0 3.495 3.305 5.738 3.445 5.832l1.111-1.663c-.025-.017-2.556-1.754-2.556-4.169 0-1.039.693-1.516 1.824-2.209.97-.593 2.176-1.332 2.176-2.791 0-1.697 1.248-3.057 2-3.723.752.666 2 2.025 2 3.723 0 1.459 1.206 2.198 2.176 2.791 1.131.693 1.824 1.17 1.824 2.209 0 2.415-2.531 4.152-2.555 4.168l1.109 1.664c.141-.094 3.446-2.337 3.446-5.832 0-2.212-1.606-3.196-2.78-3.915-.759-.464-1.22-.769-1.22-1.085 0-1.643-.731-3.004-1.519-4h20.519v34h6v-34h2zm-26-2c0-1.103.897-2 2-2h14c1.103 0 2 .897 2 2s-.897 2-2 2h-14c-1.103 0-2-.897-2-2zm-28 0c0-1.103.897-2 2-2h14c1.103 0 2 .897 2 2s-.897 2-2 2h-14c-1.103 0-2-.897-2-2zm-2 40h-2v-32h2zm52 0h-2v-32h2zm2-34h-58v-2h8 14 14 14 8z"/><path d="m49.62 50.282-16.228-7.302c-.486-.593-1.214-.98-2.038-.98-.377 0-.742.079-1.086.233l-17.888 8.05c-1.446.65-2.38 2.095-2.38 3.681 0 2.225 1.811 4.036 4.036 4.036h.109c.742 0 1.47-.205 2.105-.592l10.268-6.275-2.838 3.648c-.438.566-.68 1.271-.68 1.986 0 1.782 1.45 3.233 3.233 3.233h.386c1.233 0 2.342-.685 2.893-1.788l1.488-2.976 2.488 4.976c.551 1.103 1.659 1.788 2.893 1.788h.386c1.783 0 3.233-1.451 3.233-3.233 0-.715-.242-1.42-.682-1.985l-4.896-6.295 11.328 6.923c.635.385 1.362.59 2.104.59h.109c2.226 0 4.037-1.811 4.037-4.037 0-1.585-.934-3.03-2.38-3.681zm-34.411 5.419c-.321.195-.688.299-1.063.299h-.109c-1.124 0-2.037-.914-2.037-2.037 0-.8.472-1.529 1.2-1.857l17.888-8.049c.084-.038.174-.057.266-.057.356 0 .646.29.646.646v.43c0 .224-.118.435-.31.552zm12.514 1.617c-.21.421-.633.682-1.104.682h-.386c-.679 0-1.233-.553-1.233-1.233 0-.273.093-.542.26-.758l5.863-7.539.784.479zm10.277 1.449c0 .68-.554 1.233-1.233 1.233h-.386c-.471 0-.894-.261-1.104-.682l-3.159-6.318.675-1.351 4.946 6.359c.168.217.261.486.261.759zm9.964-2.767h-.109c-.375 0-.742-.104-1.063-.299l-13.9-8.494c.585-.424.964-1.068 1.062-1.781l14.846 6.68c.729.329 1.2 1.058 1.2 1.857 0 1.123-.913 2.037-2.036 2.037z"/><path d="m49 7v1h7c.552 0 1 .449 1 1s-.448 1-1 1h-9c-1.654 0-3 1.346-3 3v1h2v-1c0-.551.448-1 1-1h9c1.654 0 3-1.346 3-3s-1.346-3-3-3h-5.101c-.464-2.279-2.484-4-4.899-4h-3v2h3c1.654 0 3 1.346 3 3z"/><path d="m34 12h5c.552 0 1 .449 1 1v1h2v-1c0-1.654-1.346-3-3-3h-5c-.552 0-1-.449-1-1s.448-1 1-1h3v-3c0-1.654 1.346-3 3-3h1v-2h-1c-2.757 0-5 2.243-5 5v1h-1c-1.654 0-3 1.346-3 3s1.346 3 3 3z"/><path d="m19 7v1h7c.552 0 1 .449 1 1s-.448 1-1 1h-9c-1.654 0-3 1.346-3 3v1h2v-1c0-.551.448-1 1-1h9c1.654 0 3-1.346 3-3s-1.346-3-3-3h-5.101c-.464-2.279-2.484-4-4.899-4h-3v2h3c1.654 0 3 1.346 3 3z"/><path d="m3 12h6c.552 0 1 .449 1 1v1h2v-1c0-1.654-1.346-3-3-3h-6c-.552 0-1-.449-1-1s.448-1 1-1h4v-3c0-1.654 1.346-3 3-3h1v-2h-1c-2.757 0-5 2.243-5 5v1h-2c-1.654 0-3 1.346-3 3s1.346 3 3 3z"/><path d="m49.015 41.143c-1.249-.75-2.015-1.254-2.015-2.143 0-1.196.431-1.941 1.081-3.069.258-.446.535-.928.813-1.483l.724-1.448h-1.618c-2.421 0-7 1.254-7 6h2c0-2.356 1.726-3.325 3.15-3.723-.615 1.08-1.15 2.158-1.15 3.723 0 2.066 1.655 3.06 2.985 3.857 1.249.75 2.015 1.254 2.015 2.143 0 1.034-1.717 1.848-2.318 2.052l.318.948.316.949c.377-.126 3.684-1.304 3.684-3.949 0-2.066-1.655-3.06-2.985-3.857z"/><path d="m12.985 41.143c-1.33.797-2.985 1.791-2.985 3.857 0 2.645 3.307 3.823 3.684 3.949l.633-1.897c-.49-.164-2.317-.99-2.317-2.052 0-.889.766-1.393 2.015-2.143 1.33-.797 2.985-1.791 2.985-3.857 0-1.569-.538-2.649-1.155-3.732 1.426.392 3.155 1.357 3.155 3.732h2c0-4.746-4.579-6-7-6h-1.618l.724 1.447c.278.556.556 1.037.813 1.483.65 1.129 1.081 1.874 1.081 3.07 0 .889-.766 1.393-2.015 2.143z"/><path d="m31.296 37.265c.759-.624 1.704-1.4 1.704-3.265h-2c0 .919-.325 1.187-.974 1.719-.855.702-2.026 1.665-2.026 4.281h2c0-1.671.572-2.141 1.296-2.735z"/></g></g></svg>