<?xml version="1.0" encoding="iso-8859-1"?>
<!-- Generator: Adobe Illustrator 22.1.0, SVG Export Plug-In . SVG Version: 6.00 Build 0)  -->
<svg xmlns="http://www.w3.org/2000/svg" xmlns:xlink="http://www.w3.org/1999/xlink" version="1.1" id="Layer_1_1_" x="0px" y="0px" viewBox="0 0 64 64" style="enable-background:new 0 0 64 64;" xml:space="preserve" width="512" height="512">
<g>
	<g>
		<path style="fill:#CF9E76;" d="M38,56.57c0.72-0.34,1.46-0.62,2.22-0.85c1.56-0.48,3.2-0.72,4.85-0.72c4.44,0,8.69,1.76,11.83,4.9    L59,62H37l-1.15-1.31c-0.55-0.63-1.13-1.22-1.75-1.76l1.68-1.12C36.49,57.34,37.23,56.92,38,56.57z"/>
		<path style="fill:#CF9E76;" d="M37,62H5l2.26-2.26c1.84-1.84,4-3.28,6.36-4.25c2.35-0.97,4.9-1.49,7.49-1.49    c4.82,0,9.43,1.77,12.99,4.93c0.62,0.54,1.2,1.13,1.75,1.76L37,62z"/>
		<circle style="fill:#FCD770;" cx="50" cy="14" r="6"/>
		<path style="fill:#E6E9ED;" d="M57.03,36.12C57.34,36.04,57.67,36,58,36c2.21,0,4,1.79,4,4s-1.79,4-4,4H46.27    c0.47-1.05,0.73-2.2,0.73-3.4c0-1.69-0.52-3.34-1.48-4.74l-3.11-4.5l0.32-0.22L43,31.1c0.32-0.07,0.66-0.1,1-0.1    c1.64,0,3.09,0.8,4,2.03C48.91,31.8,50.36,31,52,31c2.76,0,5,2.24,5,5L57.03,36.12z"/>
		<path style="fill:#E6E9ED;" d="M6.97,7.12L7,7c0-2.76,2.24-5,5-5c1.64,0,3.09,0.8,4,2.03C16.91,2.8,18.36,2,20,2    c2.76,0,5,2.24,5,5l0.03,0.12C25.34,7.04,25.67,7,26,7c2.21,0,4,1.79,4,4s-1.79,4-4,4h-5l-4-6l-3.92,6.05L13,15H6    c-2.21,0-4-1.79-4-4s1.79-4,4-4C6.33,7,6.66,7.04,6.97,7.12z"/>
		<path style="fill:#A0D468;" d="M46.27,44c-0.17,0.39-0.38,0.77-0.61,1.13c-0.86,1.32-2.1,2.39-3.6,3.06L38,50l-4.06-1.81    C30.93,46.86,29,43.88,29,40.6c0-1.69,0.52-3.34,1.48-4.74L38,25l4.41,6.36l3.11,4.5c0.96,1.4,1.48,3.05,1.48,4.74    C47,41.8,46.74,42.95,46.27,44z"/>
		<path style="fill:#A0D468;" d="M17,44l-4.97-3.16C8.28,38.45,6,34.3,6,29.85c0-2.51,0.73-4.97,2.09-7.08l4.99-7.72L17,9l4,6    l4.91,7.77c1.36,2.11,2.09,4.57,2.09,7.08c0,2.23-0.57,4.37-1.61,6.27c-1.04,1.89-2.55,3.52-4.42,4.72L17,44z"/>
	</g>
	<g>
		<path d="M50,21c3.86,0,7-3.141,7-7s-3.14-7-7-7s-7,3.141-7,7S46.14,21,50,21z M50,9c2.757,0,5,2.243,5,5s-2.243,5-5,5    s-5-2.243-5-5S47.243,9,50,9z"/>
		<rect x="49" y="1" width="2" height="4"/>
		<rect x="41.222" y="4.222" transform="matrix(0.707 -0.7072 0.7072 0.707 7.9693 31.6807)" width="2" height="4"/>
		<rect x="37" y="13" width="4" height="2"/>
		<rect x="40.222" y="20.778" transform="matrix(0.7071 -0.7071 0.7071 0.7071 -3.0331 36.2341)" width="4" height="2"/>
		<rect x="49" y="23" width="2" height="4"/>
		<rect x="56.778" y="19.778" transform="matrix(0.7071 -0.7071 0.7071 0.7071 1.5232 47.234)" width="2" height="4"/>
		<rect x="59" y="13" width="4" height="2"/>
		<rect x="55.778" y="5.222" transform="matrix(0.7071 -0.7071 0.7071 0.7071 12.5234 42.6776)" width="4" height="2"/>
		<path d="M42.469,49.108c1.923-0.855,3.437-2.326,4.397-4.108H58c2.757,0,5-2.243,5-5s-2.243-5-5-5c-0.03,0-0.06,0.004-0.09,0.005    C57.434,32.169,54.969,30,52,30c-1.501,0-2.908,0.552-4,1.545C46.908,30.552,45.501,30,44,30c-0.403,0-0.807,0.04-1.151,0.111    l-0.085,0.013L38,23.243l-8.344,12.052C28.573,36.86,28,38.693,28,40.597c0,3.678,2.171,7.019,5.531,8.512L37,50.65v5.303    c-0.605,0.31-1.2,0.645-1.771,1.025l-1.051,0.701C30.522,54.677,25.912,53,21.113,53c-1.054,0-2.09,0.103-3.113,0.257v-8.708    l4.503-2.866C26.571,39.095,29,34.67,29,29.848c0-2.71-0.778-5.346-2.245-7.612L22.815,16H26c2.757,0,5-2.243,5-5s-2.243-5-5-5    c-0.03,0-0.06,0.004-0.09,0.005C25.434,3.169,22.969,1,20,1c-1.501,0-2.908,0.552-4,1.545C14.908,1.552,13.501,1,12,1    C9.031,1,6.566,3.169,6.09,6.005C6.06,6.004,6.03,6,6,6c-2.757,0-5,2.243-5,5s2.243,5,5,5h5.28l-4.029,6.227    C5.778,24.502,5,27.138,5,29.848c0,4.822,2.429,9.247,6.497,11.836L16,44.549v9.112c-3.54,0.902-6.793,2.717-9.443,5.368L4.586,61    H1v2h62v-2h-3.586l-1.805-1.805C54.259,55.845,49.805,54,45.067,54c-2.088,0-4.135,0.373-6.067,1.077V50.65L42.469,49.108z     M12.571,39.996C9.083,37.776,7,33.982,7,29.848c0-2.324,0.667-4.584,1.93-6.535l8.083-12.491l1.155,1.733l1.664-1.109    l-2.845-4.267L12.574,14H6c-1.654,0-3-1.346-3-3s1.346-3,3-3c0.86,0,1.681,0.37,2.25,1.016l1.5-1.322    c-0.475-0.538-1.054-0.962-1.694-1.25C8.33,4.502,9.985,3,12,3c1.263,0,2.429,0.592,3.198,1.625L16,5.701l0.802-1.076    C17.571,3.592,18.737,3,20,3c2.015,0,3.67,1.502,3.944,3.443c-0.64,0.289-1.219,0.712-1.694,1.25l1.5,1.322    C24.319,8.37,25.14,8,26,8c1.654,0,3,1.346,3,3s-1.346,3-3,3h-6.815l5.885,9.312c1.262,1.951,1.93,4.211,1.93,6.535    c0,4.135-2.083,7.929-5.571,10.148L18,42.178v-4.764l4.707-4.707l-1.414-1.414L18,34.586v-6.172l4.707-4.707l-1.414-1.414    L18,25.586V15h-2v10.586l-3.293-3.293l-1.414,1.414L16,28.414v6.172l-3.293-3.293l-1.414,1.414L16,37.414v4.764L12.571,39.996z     M7.971,60.443C11.481,56.934,16.148,55,21.113,55c5.197,0,10.135,2.191,13.649,6H7.414L7.971,60.443z M56.195,60.609L56.586,61    H37.453l-0.848-0.97c-0.291-0.333-0.595-0.651-0.904-0.962l0.638-0.425C38.933,56.914,41.951,56,45.067,56    C49.271,56,53.222,57.637,56.195,60.609z M47.198,33.625L48,34.701l0.802-1.076C49.571,32.592,50.737,32,52,32    c2.015,0,3.67,1.502,3.944,3.443c-0.64,0.289-1.219,0.712-1.694,1.25l1.5,1.322C56.319,37.37,57.14,37,58,37c1.654,0,3,1.346,3,3    s-1.346,3-3,3H47.668C47.876,42.226,48,41.422,48,40.597c0-1.903-0.573-3.736-1.656-5.302l-2.272-3.282    C45.273,32.042,46.446,32.615,47.198,33.625z M34.344,47.28C31.705,46.108,30,43.484,30,40.597c0-1.495,0.45-2.935,1.301-4.163    L38,26.757l6.699,9.677C45.55,37.662,46,39.102,46,40.597c0,2.888-1.705,5.512-4.344,6.684L39,48.461v-4.047l4.707-4.707    l-1.414-1.414L39,41.586V31h-2v10.586l-3.293-3.293l-1.414,1.414L37,44.414v4.047L34.344,47.28z"/>
	</g>
</g>
</svg>
