<svg id="Capa_1" enable-background="new 0 0 512 512" height="512" viewBox="0 0 512 512" width="512" xmlns="http://www.w3.org/2000/svg"><g><g fill="#fce8d0"><path d="m192.12 285.71c.69-8.87 2.54-17.48 5.13-26.12 4.77-15.87 21.49-24.88 37.36-20.12 13 3.89 21.39 15.81 21.39 28.71 0 2.86-.41 5.77-1.28 8.65-2.91 9.71-2.67 22.48-2.26 40.77 1.12 49.96-18.35 98.29-53.68 133.62-19.07 19.07-44.93 29.78-71.9 29.78h-116.88v-90h91.1c15.04 0 27.61-11.15 29.84-26.02 2.16-14.35 1.89-29.31 1.55-44.76-1.01-45.71-2.16-97.54 57.1-156.79l42.43-42.43c17.35 17.35 20.87 44.06 8.85 65.45-5.97 10.6-13.58 22.3-26.13 39.16-15.58 20.94-21.18 39.75-22.62 60.1z"/><path d="m319.88 285.71c-1.44-20.35-7.04-39.16-22.62-60.1-12.55-16.86-20.16-28.56-26.13-39.16-12.02-21.39-8.5-48.1 8.85-65.45l42.43 42.43c59.26 59.25 58.11 111.08 57.1 156.79-.34 15.45-.61 30.41 1.55 44.76 2.23 14.87 14.8 26.02 29.84 26.02h91.1v90h-116.88c-26.97 0-52.83-10.71-71.9-29.78-35.33-35.33-54.8-83.66-53.68-133.62.41-18.29.65-31.06-2.26-40.77-.87-2.88-1.28-5.79-1.28-8.65 0-12.9 8.4-24.82 21.4-28.71 15.86-4.76 32.58 4.25 37.35 20.12 2.59 8.64 4.44 17.25 5.13 26.12z"/></g><g><path d="m246 31v30c0 5.522 4.478 10 10 10s10-4.478 10-10v-30c0-5.522-4.478-10-10-10s-10 4.478-10 10z"/><path d="m146.001 50.469c-4.784 2.761-6.423 8.876-3.663 13.66l15 25.99c2.769 4.798 8.888 6.415 13.66 3.662 4.784-2.761 6.423-8.876 3.663-13.66l-15-25.99c-2.76-4.783-8.876-6.422-13.66-3.662z"/><path d="m79.128 127.339c-4.783-2.759-10.898-1.12-13.66 3.662-2.761 4.784-1.121 10.899 3.663 13.66l25.99 15c4.775 2.755 10.893 1.131 13.66-3.662 2.761-4.784 1.121-10.899-3.663-13.66z"/><path d="m352.339 54.131-15 25.99c-2.761 4.784-1.121 10.899 3.662 13.66 4.785 2.759 10.897 1.124 13.66-3.662l15-25.99c2.761-4.784 1.121-10.899-3.662-13.66-4.788-2.761-10.899-1.119-13.66 3.662z"/><path d="m416.879 159.661 25.99-15c4.783-2.761 6.423-8.876 3.662-13.66-2.761-4.783-8.876-6.424-13.66-3.662l-25.99 15c-4.783 2.761-6.423 8.876-3.662 13.66 2.769 4.797 8.888 6.415 13.66 3.662z"/><circle cx="304" cy="441" r="10"/><path d="m502 381h-91.1c-10.039 0-18.43-7.361-19.952-17.508-2.083-13.846-1.757-28.693-1.44-43.063.504-22.812 1.075-48.667-6.29-76.124-8.439-31.464-26.018-60.231-53.736-87.946l-42.43-42.43c-3.905-3.903-10.235-3.904-14.143 0-8.489 8.488-14.177 18.976-16.909 30.146-2.732-11.17-8.421-21.657-16.909-30.146-3.905-3.904-10.237-3.904-14.142 0l-42.43 42.43c-27.721 27.716-45.298 56.483-53.738 87.947-7.365 27.458-6.793 53.313-6.289 76.134.316 14.36.643 29.209-1.442 43.058-1.52 10.141-9.911 17.502-19.95 17.502h-91.1c-5.523 0-10 4.478-10 10v90c0 5.522 4.477 10 10 10h116.88c67.359 0 113.136-59.972 129.108-119.888 3.384 12.759 8.054 25.188 13.985 37.025 2.467 4.923 8.471 6.942 13.42 4.461 4.938-2.474 6.935-8.482 4.461-13.42-12.611-25.171-18.944-53.303-18.316-81.354.424-18.866.729-32.497-2.685-43.887-.565-1.873-.853-3.811-.853-5.758 0-8.749 5.867-16.615 14.275-19.132 10.55-3.168 21.722 2.853 24.896 13.413 3.067 10.232 4.469 18.816 4.829 25.344v31.196c0 5.522 4.478 10 10 10s10-4.478 10-10v-32c0-20.579-8.517-45.587-24.719-67.36-11.317-15.205-19.163-26.955-25.434-38.088-8.116-14.445-7.481-32.007.949-45.593l34.543 34.542c56.232 56.224 55.186 103.636 54.172 149.499-.318 14.494-.68 30.924 1.658 46.464 3.003 20.012 19.712 34.536 39.731 34.536h81.1v70h-106.88c-14.524 0-29.028-3.512-41.942-10.154-4.912-2.526-10.94-.594-13.467 4.318-2.526 4.911-.593 10.94 4.318 13.467 15.732 8.092 33.399 12.369 51.091 12.369h116.88c5.522 0 10-4.478 10-10v-90c0-5.522-4.478-10-10-10zm-256.859-107.041c-3.407 11.368-3.102 24.999-2.678 43.865 1.584 70.673-45.147 153.176-115.583 153.176h-106.88v-70h81.1c20.02 0 36.728-14.524 39.729-34.531 2.339-15.542 1.978-31.973 1.659-46.479-1.014-45.852-2.062-93.264 54.173-149.488l34.542-34.542c8.431 13.586 9.066 31.146.954 45.584-20.522 36.433-50.157 59.909-50.157 105.456v32c0 5.522 4.477 10 10 10s10-4.478 10-10v-31.182c.13-.977.135-9.694 4.827-25.349 3.177-10.567 14.352-16.585 24.916-13.419 8.395 2.513 14.257 10.379 14.257 19.13 0 1.947-.287 3.884-.859 5.779zm41.607-45.746c-4.036-.077-8.148.455-12.214 1.677-7.324 2.192-13.685 6.422-18.53 11.947-4.843-5.525-11.2-9.755-18.52-11.945-4.071-1.221-8.184-1.761-12.226-1.682 10.524-14.313 18.1-25.797 24.331-36.861 2.919-5.194 5.041-10.67 6.413-16.267 1.373 5.599 3.496 11.078 6.416 16.275 6.224 11.054 13.803 22.541 24.33 36.856z"/></g></g></svg>