<svg height="496pt" viewBox="0 -4 496 496" width="496pt" xmlns="http://www.w3.org/2000/svg"><path d="m472 416.015625v-216.015625c0-17.671875-14.328125-32-32-32l-8-8h-312l-7.230469 8c-10.496093 0-20.328125 5.152344-26.3125 13.792969l-56.769531 81.992187c-3.703125 5.351563-5.6875 11.703125-5.6875 18.207032v134.023437zm0 0" fill="#fcd770"/><path d="m472 328h-144l-80 40h-224v32h448zm0 0" fill="#ff826e"/><path d="m408 448h72c4.425781 0 8-3.574219 8-8v-32c0-4.425781-3.574219-8-8-8h-464c-4.425781 0-8 3.574219-8 8v32c0 4.425781 3.574219 8 8 8zm0 0" fill="#ccd1d9"/><path d="m192 424c0 30.929688-25.070312 56-56 56s-56-25.070312-56-56 25.070312-56 56-56 56 25.070312 56 56zm0 0" fill="#656d78"/><path d="m416 424c0 30.929688-25.070312 56-56 56s-56-25.070312-56-56 25.070312-56 56-56 56 25.070312 56 56zm0 0" fill="#656d78"/><path d="m160 424c0 13.253906-10.746094 24-24 24s-24-10.746094-24-24 10.746094-24 24-24 24 10.746094 24 24zm0 0" fill="#969faa"/><path d="m384 424c0 13.253906-10.746094 24-24 24s-24-10.746094-24-24 10.746094-24 24-24 24 10.746094 24 24zm0 0" fill="#969faa"/><path d="m72 296v-24l48-72h104v96zm0 0" fill="#69d6f4"/><path d="m184 320h48v16h-48zm0 0" fill="#ccd1d9"/><path d="m440 296h-184v-96h176c4.425781 0 8 3.574219 8 8zm0 0" fill="#69d6f4"/><path d="m464 72c0 35.347656-28.652344 64-64 64s-64-28.652344-64-64 28.652344-64 64-64 64 28.652344 64 64zm0 0" fill="#fcd770"/><path d="m432 72c0 17.671875-14.328125 32-32 32s-32-14.328125-32-32 14.328125-32 32-32 32 14.328125 32 32zm0 0" fill="#cf9e76"/><path d="m96 144.007812v-72.007812c0-8.832031 7.160156-16 16-16h44.6875c7.242188 0 14.191406 2.871094 19.3125 8 5.128906-5.128906 12.070312-8 19.3125-8h49.375c7.242188 0 14.191406 2.871094 19.3125 8 5.128906-5.128906 12.070312-8 19.3125-8h36.6875c8.832031 0 16 7.167969 16 16v72.007812zm0 0" fill="#b4dd7f"/><path d="m264 72v-8c-5.128906-5.128906-12.070312-8-19.3125-8h-49.375c-7.242188 0-14.183594 2.871094-19.3125 8v72h88zm0 0" fill="#ff826e"/><path d="m472 168h-400c-8.839844 0-16-7.167969-16-16s7.160156-16 16-16h400c8.832031 0 16 7.167969 16 16s-7.167969 16-16 16zm0 0" fill="#b27946"/><path d="m136 392c-17.648438 0-32 14.351562-32 32s14.351562 32 32 32 32-14.351562 32-32-14.351562-32-32-32zm0 48c-8.824219 0-16-7.175781-16-16s7.175781-16 16-16 16 7.175781 16 16-7.175781 16-16 16zm0 0"/><path d="m360 392c-17.648438 0-32 14.351562-32 32s14.351562 32 32 32 32-14.351562 32-32-14.351562-32-32-32zm0 48c-8.824219 0-16-7.175781-16-16s7.175781-16 16-16 16 7.175781 16 16-7.175781 16-16 16zm0 0"/><path d="m480 392v-192c0-9.039062-3.128906-17.296875-8.207031-24h.207031c13.230469 0 24-10.769531 24-24s-10.769531-24-24-24h-26.847656c16.351562-13.207031 26.847656-33.390625 26.847656-56 0-39.695312-32.296875-72-72-72-32.359375 0-59.785156 21.457031-68.832031 50.886719-3.351563-1.78125-7.113281-2.886719-11.167969-2.886719h-36.6875c-6.960938 0-13.617188 2-19.3125 5.734375-5.695312-3.734375-12.351562-5.734375-19.3125-5.734375h-49.375c-6.960938 0-13.617188 2-19.3125 5.734375-5.695312-3.734375-12.351562-5.734375-19.3125-5.734375h-44.6875c-13.230469 0-24 10.769531-24 24v56h-16c-13.230469 0-24 10.769531-24 24s10.769531 24 24 24h8.847656c-.3125.414062-.671875.800781-.96875 1.230469l-56.765625 81.992187c-4.648437 6.730469-7.113281 14.601563-7.113281 22.769532v110.007812c-8.824219 0-16 7.175781-16 16v32c0 8.824219 7.175781 16 16 16h64.65625c11.085938 19.097656 31.710938 32 55.34375 32s44.257812-12.902344 55.34375-32h113.320312c11.089844 19.097656 31.710938 32 55.34375 32 23.632813 0 44.257813-12.902344 55.34375-32h64.648438c8.824219 0 16-7.175781 16-16v-32c0-8.824219-7.175781-16-16-16zm-64.65625 0c-11.085938-19.097656-31.710938-32-55.34375-32s-44.257812 12.902344-55.34375 32h-113.3125c-3.496094-6.023438-7.953125-11.425781-13.152344-16h71.703125l80-40h134.105469v56zm-15.34375-376c30.871094 0 56 25.121094 56 56s-25.128906 56-56 56-56-25.121094-56-56 25.128906-56 56-56zm-45.152344 112h-10.847656v-10.847656c3.222656 3.992187 6.855469 7.625 10.847656 10.847656zm-110.160156-64c4.128906 0 8.03125 1.34375 11.3125 3.726562v20.273438h16v-20.273438c3.28125-2.382812 7.183594-3.726562 11.3125-3.726562h36.6875c4.414062 0 8 3.59375 8 8v56h-56v-24h-16v24h-72v-60.273438c3.28125-2.382812 7.183594-3.726562 11.3125-3.726562zm-140.6875 8c0-4.40625 3.585938-8 8-8h44.6875c4.128906 0 8.03125 1.34375 11.3125 3.726562v60.273438h-64zm-40 80c0-4.40625 3.585938-8 8-8h400c4.414062 0 8 3.59375 8 8s-3.585938 8-8 8h-400c-4.414062 0-8-3.59375-8-8zm-27.734375 116.335938 56.765625-81.992188c4.480469-6.480469 11.855469-10.34375 19.738281-10.34375h327.230469c13.230469 0 24 10.769531 24 24v120h-137.886719l-80 40h-214.113281v-78.007812c0-4.902344 1.480469-9.625 4.265625-13.65625zm-4.265625 107.664062h61.808594c-5.199219 4.574219-9.648438 9.976562-13.152344 16h-48.65625zm-16 64v-32h58.105469c-1.328125 5.128906-2.105469 10.464844-2.105469 16s.777344 10.871094 2.105469 16zm120 32c-26.472656 0-48-21.527344-48-48s21.527344-48 48-48 48 21.527344 48 48-21.527344 48-48 48zm61.894531-32c1.328125-5.128906 2.105469-10.464844 2.105469-16s-.777344-10.871094-2.105469-16h100.21875c-1.335937 5.128906-2.113281 10.464844-2.113281 16s.777344 10.871094 2.105469 16zm162.105469 32c-26.472656 0-48-21.527344-48-48s21.527344-48 48-48 48 21.527344 48 48-21.527344 48-48 48zm120-32h-58.105469c1.328125-5.128906 2.105469-10.464844 2.105469-16s-.777344-10.871094-2.105469-16h58.105469zm0 0"/><path d="m232 192h-116.28125l-51.71875 77.574219v34.425781h168zm-16 96h-136v-13.574219l44.28125-66.425781h91.71875zm0 0"/><path d="m184 320h48v16h-48zm0 0"/><path d="m448 208c0-8.824219-7.175781-16-16-16h-184v112h200zm-16 80h-168v-80h168zm0 0"/><path d="m400 112c22.054688 0 40-17.945312 40-40s-17.945312-40-40-40-40 17.945312-40 40 17.945312 40 40 40zm0-64c13.230469 0 24 10.769531 24 24s-10.769531 24-24 24-24-10.769531-24-24 10.769531-24 24-24zm0 0"/></svg>